# xmcd
#
# Track frame offsets: 
#        150
#        17518
#        29705
#        52848
#        67943
#        89340
#        105275
#        115428
#        136683
#        151230
#        163373
#        179760
#        195558
#        212893
#
# Disc length: 2932 seconds
#
# Revision: 5
# Processed by: cddbd v1.5.2PL0 Copyright (c) Steve Scherf et al.
# Submitted via: ExactAudioCopy v0.99pb4
#
DISCID=bb0b720e
DTITLE=Alvin Youngblood Hart - Big Mama's Door
DYEAR=1996
DGENRE=Blues
TTITLE0=Big Mama's Door
TTITLE1=Joe Friday
TTITLE2=Them Fair Weather Friends
TTITLE3=France Blues
TTITLE4=Gallows Pole
TTITLE5=Pony Blues
TTITLE6=Amazed `n' Amused
TTITLE7=Things 'Bout Comin' My Way
TTITLE8=When I Was A Cowboy (Western Plains)
TTITLE9=Rest Your Saddle
TTITLE10=If Blues Was Money
TTITLE11=Hillbilly Willie's Blues
TTITLE12=Livin' In A Strain
TTITLE13=That Kate Adams Jive
EXTD=
EXTT0=
EXTT1=
EXTT2=
EXTT3=
EXTT4=
EXTT5=
EXTT6=
EXTT7=
EXTT8=
EXTT9=
EXTT10=
EXTT11=
EXTT12=
EXTT13=
PLAYORDER=
